<?xml version="1.0" standalone="no"?>
<!DOCTYPE svg PUBLIC "-//W3C//DTD SVG 20010904//EN"
 "http://www.w3.org/TR/2001/REC-SVG-20010904/DTD/svg10.dtd">
<svg version="1.0" xmlns="http://www.w3.org/2000/svg"
 width="300.000000pt" height="300.000000pt" viewBox="0 0 300.000000 300.000000"
 preserveAspectRatio="xMidYMid meet">
<metadata>
Created by potrace 1.10, written by Peter Selinger 2001-2011
</metadata>
<g transform="translate(0.000000,300.000000) scale(0.100000,-0.100000)"
fill="#000000" stroke="none">
<path d="M1285 2744 c-171 -30 -347 -101 -498 -201 -106 -70 -273 -241 -346
-353 -147 -228 -210 -459 -198 -735 20 -464 286 -875 699 -1078 181 -89 348
-127 563 -127 260 0 479 66 693 210 319 214 516 547 553 934 41 432 -143 848
-490 1109 -164 124 -355 207 -555 242 -109 19 -312 18 -421 -1z m395 -28 c265
-40 493 -157 686 -350 329 -328 445 -796 304 -1219 -42 -124 -118 -277 -182
-362 -364 -490 -1015 -645 -1552 -367 -283 146 -491 392 -605 716 -97 276 -79
600 49 883 78 171 245 372 401 483 146 103 339 184 499 210 41 6 82 13 90 15
44 8 227 3 310 -9z"/>
<path d="M1356 2651 c-5 -8 94 -4 103 4 2 3 -19 5 -47 5 -28 0 -53 -4 -56 -9z"/>
<path d="M1251 2639 c-69 -13 -171 -50 -171 -60 0 -6 -4 -8 -9 -4 -12 7 -81
-25 -81 -38 0 -5 7 -4 15 3 8 7 15 9 15 4 0 -5 4 -3 9 5 5 8 17 15 28 16 10 1
33 9 51 19 18 9 46 19 62 21 16 2 34 6 39 10 6 3 25 8 43 10 50 7 80 14 86 20
7 7 -35 4 -87 -6z"/>
<path d="M1642 2645 c3 -3 24 -8 47 -10 23 -2 46 -7 51 -10 5 -3 11 -1 14 4 3
4 -11 11 -32 15 -46 7 -87 8 -80 1z"/>
<path d="M1764 2618 c-4 -6 -3 -8 3 -5 6 4 26 2 44 -4 45 -14 53 -17 59 -16 3
0 16 -5 30 -12 23 -11 24 -11 6 3 -16 13 -110 46 -129 46 -3 0 -9 -5 -13 -12z"/>
<path d="M1336 2589 c-99 -15 -207 -49 -311 -99 -161 -77 -162 -80 -19 -73 86
4 123 3 128 -6 4 -7 0 -11 -11 -11 -47 -1 -45 -15 17 -114 76 -120 185 -341
270 -548 35 -87 67 -158 71 -158 3 0 68 129 145 288 76 158 164 337 196 399
31 61 54 114 51 117 -4 3 -17 6 -30 6 -13 0 -23 6 -23 14 0 11 28 12 148 8
103 -3 144 -1 137 6 -19 21 -187 101 -263 126 -154 51 -348 68 -506 45z m359
-43 c92 -16 193 -49 213 -70 23 -23 5 -36 -43 -31 -37 4 -47 1 -60 -17 -13
-20 -13 -25 1 -47 18 -26 16 -32 -112 -285 l-40 -81 -132 -3 c-73 -1 -132 -6
-132 -10 0 -4 -9 -8 -20 -9 -13 -1 -28 14 -49 47 -16 26 -28 50 -25 52 2 3 -5
13 -16 23 -11 10 -20 26 -20 35 0 9 -13 36 -30 58 -16 23 -30 46 -30 50 0 5
-14 30 -31 56 -28 42 -30 50 -19 72 11 20 11 27 -4 43 -9 10 -31 22 -49 26
l-32 7 50 24 c140 66 397 92 580 60z m-56 -555 c17 -11 2 -41 -35 -70 -14 -11
-23 -24 -20 -29 11 -17 -84 -222 -103 -222 -3 0 -15 21 -25 48 -48 124 -56
148 -56 164 0 9 -6 21 -13 25 -16 9 -52 62 -46 67 2 2 62 6 133 9 71 4 131 9
134 12 7 7 15 6 31 -4z"/>
<path d="M2135 1840 c0 -543 0 -550 20 -550 33 0 118 -45 154 -81 52 -52 75
-112 76 -195 0 -67 -2 -75 -39 -128 -41 -60 -97 -105 -155 -124 -23 -8 -136
-12 -345 -12 -282 0 -354 -6 -334 -25 3 -4 151 -7 327 -7 195 0 321 -4 321
-10 0 -14 -50 -57 -100 -86 -25 -14 -47 -29 -50 -32 -9 -10 -50 -30 -61 -30
-6 0 -43 -15 -83 -34 -251 -119 -519 -110 -847 28 -51 21 -59 36 -64 108 -2
34 -9 95 -15 133 -6 40 -12 244 -14 472 l-2 402 29 11 c17 5 38 10 48 10 11 0
19 5 19 11 0 6 -17 9 -42 7 l-43 -3 -8 117 c-6 101 -5 123 9 150 l17 32 18
-35 c10 -19 26 -56 35 -84 9 -27 25 -61 34 -75 9 -14 26 -43 36 -65 10 -22 26
-47 36 -55 10 -8 40 -58 66 -110 139 -272 174 -330 202 -330 25 0 42 26 145
225 48 94 117 226 153 295 35 69 69 131 74 137 6 7 8 20 4 28 -3 9 3 24 13 34
15 15 27 17 52 12 38 -8 48 -31 24 -55 -12 -12 -13 -20 -5 -35 6 -12 10 -122
10 -296 l0 -276 -22 12 c-65 35 -193 2 -238 -61 -32 -45 -24 -81 23 -104 41
-19 39 -20 107 19 31 18 59 2 73 -40 22 -66 -49 -171 -198 -290 -89 -70 -115
-99 -103 -110 9 -9 173 122 229 183 74 79 104 141 103 210 0 64 -24 93 -77 95
-40 1 -67 -17 -67 -44 0 -20 -15 -26 -25 -10 -3 5 -19 12 -35 16 -17 4 -30 9
-30 12 0 15 54 75 80 88 34 18 112 20 143 4 12 -6 34 -23 50 -37 l27 -26 -1
520 c0 474 -1 517 -16 497 -8 -13 -51 -98 -95 -190 -43 -93 -136 -280 -205
-418 -69 -137 -140 -278 -156 -312 -17 -35 -34 -63 -38 -63 -4 0 -48 80 -97
178 -50 97 -116 220 -147 272 -68 113 -161 305 -201 412 -16 43 -32 78 -36 78
-11 0 -9 -927 2 -1190 12 -267 27 -440 41 -456 5 -6 42 -27 82 -47 423 -204
899 -112 1242 239 92 93 164 198 225 327 75 156 95 243 94 412 0 77 -5 167
-12 200 -55 254 -184 481 -371 648 -29 26 -56 47 -60 47 -3 0 -6 -247 -6 -550z
m107 408 c112 -120 212 -286 254 -421 15 -48 16 -60 5 -66 -11 -7 -11 -10 0
-17 41 -26 54 -89 53 -269 -1 -128 -61 -362 -108 -420 l-24 -29 -12 59 c-21
102 -73 166 -177 216 -43 20 -65 37 -68 52 -3 12 -3 117 -1 232 6 249 4 227
14 222 4 -3 6 105 4 239 -2 181 0 244 9 244 6 0 29 -19 51 -42z m-396 -224
c-6 -24 -30 -32 -40 -15 -6 9 16 70 31 84 10 11 17 -38 9 -69z"/>
<path d="M715 2267 c-202 -217 -305 -475 -305 -765 0 -286 100 -542 291 -747
l64 -68 6 109 c12 186 21 1293 12 1418 l-8 118 -60 -65z m30 -102 c11 -100 8
-516 -3 -527 -10 -10 -95 -43 -198 -77 -28 -9 -58 -22 -66 -28 -8 -7 -19 -8
-27 -3 -12 7 -12 21 -1 87 29 177 73 302 154 442 42 72 124 176 132 169 1 -2
6 -30 9 -63z m20 -587 c-3 -23 -10 -45 -15 -48 -5 -3 -5 -42 -1 -90 10 -103 3
-614 -9 -644 -7 -20 -12 -17 -61 35 -30 30 -70 86 -89 124 -19 38 -45 83 -56
101 -34 52 -73 192 -80 287 -4 48 -11 90 -15 93 -13 8 -11 50 4 61 6 5 75 33
152 60 123 45 163 59 172 62 2 1 0 -18 -2 -41z"/>
<path d="M2062 1208 c-133 -29 -184 -207 -89 -315 107 -122 309 -56 325 106
13 140 -98 239 -236 209z m136 -55 c46 -34 72 -82 72 -130 0 -152 -193 -220
-285 -99 -84 110 0 263 138 253 28 -3 60 -13 75 -24z"/>
<path d="M2042 1118 c-36 -26 -58 -84 -47 -127 9 -38 53 -80 92 -87 47 -9 81
2 114 39 24 26 29 40 29 80 0 42 -5 54 -34 83 -28 28 -41 34 -78 34 -29 0 -54
-8 -76 -22z m141 -39 c37 -40 36 -81 -2 -120 -20 -20 -39 -29 -62 -29 -41 0
-95 34 -103 65 -10 39 18 93 56 110 43 18 76 10 111 -26z"/>
<path d="M2606 1124 c-10 -33 -40 -102 -67 -154 -163 -314 -460 -542 -794
-611 -321 -66 -632 -5 -909 179 -146 97 -341 325 -392 458 -9 24 -21 44 -26
44 -10 0 66 -149 100 -198 12 -16 22 -33 22 -36 0 -27 228 -249 311 -302 63
-41 161 -91 244 -125 148 -60 420 -84 600 -53 133 24 279 77 400 146 162 93
376 314 426 441 6 15 15 27 20 27 5 0 8 3 7 8 -1 4 8 25 19 48 27 50 65 163
61 176 -2 6 -12 -16 -22 -48z"/>
<path d="M1792 890 l-53 -60 92 0 93 0 -26 28 c-32 34 -51 70 -43 82 3 6 3 10
-2 10 -4 0 -32 -27 -61 -60z"/>
</g>
</svg>
