<svg version="1.0" xmlns="http://www.w3.org/2000/svg"
 width="136.5pt" height="26.5pt" viewBox="0 0 273.000000 53.000000"
 preserveAspectRatio="xMidYMid meet">

<g transform="translate(0.000000,53.000000) scale(0.100000,-0.100000)"
fill="#000000" stroke="none">
<path d="M1253 488 c-43 -9 -61 -38 -25 -38 13 0 11 -3 -7 -13 -31 -15 -37
-34 -14 -40 15 -4 14 -5 -3 -6 -27 -1 -39 -38 -15 -44 14 -4 14 -5 -2 -6 -19
-1 -20 -3 -77 -163 l-39 -108 28 0 c23 0 31 7 46 40 22 48 31 50 40 10 14 -66
67 -79 116 -30 36 36 36 73 1 78 -29 4 -52 -14 -52 -40 0 -17 2 -18 15 -8 9 7
18 11 20 8 3 -3 -2 -11 -11 -19 -14 -12 -19 -10 -35 10 -27 34 -24 57 11 71
44 18 90 64 90 90 0 22 -3 22 -55 17 l-54 -5 26 53 c21 42 30 52 40 43 9 -7
17 -7 28 2 23 19 19 43 -6 37 -12 -3 -19 -1 -16 6 2 6 14 12 28 12 14 0 25 7
27 18 2 10 -3 17 -12 17 -9 0 -16 5 -16 10 0 12 -19 11 -77 -2z m17 -237 c0
-13 -69 -65 -76 -58 -7 6 15 49 30 59 16 11 46 10 46 -1z"/>
<path d="M229 333 c-59 -112 -101 -175 -142 -220 -67 -71 -72 -99 -10 -54 37
27 77 72 134 153 l17 23 28 -57 c15 -32 31 -58 34 -57 3 0 41 40 85 89 44 48
81 87 83 85 2 -1 -16 -53 -38 -115 -23 -61 -40 -113 -38 -115 5 -5 117 10 123
17 5 4 95 379 95 393 0 3 -13 5 -29 5 -25 0 -42 -15 -117 -107 l-88 -106 -23
108 c-13 60 -25 110 -26 111 -2 2 -41 -67 -88 -153z m71 -63 c7 -33 10 -63 7
-67 -11 -10 -48 88 -42 108 11 34 22 20 35 -41z m168 -105 c-6 -14 -15 -25
-20 -25 -5 0 -1 11 8 25 9 14 18 25 20 25 2 0 -2 -11 -8 -25z"/>
<path d="M2220 468 c-56 -29 -88 -78 -72 -114 16 -33 64 -33 97 1 29 28 31 38
11 54 -11 9 -15 7 -19 -9 -6 -25 -37 -27 -37 -2 0 39 64 71 95 48 17 -12 17
-17 5 -45 -7 -18 -52 -68 -101 -112 -81 -74 -169 -182 -157 -194 9 -9 251 -26
258 -18 4 4 11 29 14 56 6 36 4 47 -7 47 -14 0 -114 -17 -156 -26 -22 -5 -23
-4 -11 12 8 9 48 39 90 67 101 67 138 104 151 150 14 51 4 76 -37 93 -46 19
-73 18 -124 -8z m135 -78 c-3 -5 -10 -10 -16 -10 -5 0 -9 5 -9 10 0 6 7 10 16
10 8 0 12 -4 9 -10z m-30 -50 c-3 -5 -13 -10 -21 -10 -8 0 -12 5 -9 10 3 6 13
10 21 10 8 0 12 -4 9 -10z m-55 -40 c0 -5 -5 -10 -11 -10 -5 0 -7 5 -4 10 3 6
8 10 11 10 2 0 4 -4 4 -10z"/>
<path d="M2575 480 c-43 -9 -65 -23 -107 -67 -103 -107 -130 -289 -49 -333 99
-52 262 97 278 255 5 51 -9 119 -28 131 -22 13 -66 20 -94 14z m50 -71 c4 -5
0 -18 -9 -28 -23 -25 -20 -34 9 -27 18 5 25 2 25 -8 0 -25 -12 -46 -26 -46 -8
0 -14 -9 -14 -20 0 -11 4 -20 10 -20 6 0 5 -10 -2 -25 -8 -19 -16 -23 -33 -19
-29 7 -39 -9 -23 -36 11 -17 11 -22 -2 -30 -11 -7 -16 -5 -18 5 -5 22 -33 18
-39 -5 -3 -11 -12 -20 -19 -20 -18 0 -32 32 -16 38 17 5 15 32 -3 32 -22 0
-18 27 5 40 21 11 28 40 10 40 -5 0 -10 5 -10 10 0 6 9 10 19 10 21 0 36 27
18 33 -8 2 -6 12 6 30 17 27 37 36 37 17 0 -21 30 -9 36 15 6 26 28 33 39 14z"/>
<path d="M2536 304 c-33 -33 -8 -66 33 -44 28 14 29 60 2 60 -11 0 -27 -7 -35
-16z"/>
<path d="M1273 355 c-3 -9 -3 -18 0 -22 10 -10 37 6 37 22 0 20 -29 20 -37 0z"/>
<path d="M1740 325 c-16 -36 -24 -45 -45 -45 -18 0 -25 -5 -25 -20 0 -14 7
-20 23 -20 22 0 22 0 -2 -13 -32 -16 -39 -37 -12 -37 12 0 21 -1 21 -2 0 -2
-9 -32 -20 -67 -11 -35 -18 -66 -16 -68 15 -16 47 15 70 67 21 46 32 60 48 60
19 0 47 25 48 43 0 4 -9 7 -20 7 -30 0 -24 18 7 22 28 3 45 28 19 28 -20 0
-20 23 -1 60 l16 30 -46 0 c-45 0 -46 -1 -65 -45z m60 1 c0 -2 -7 -9 -15 -16
-12 -10 -15 -10 -15 4 0 9 7 16 15 16 8 0 15 -2 15 -4z m-30 -66 c0 -5 -4 -10
-10 -10 -5 0 -10 5 -10 10 0 6 5 10 10 10 6 0 10 -4 10 -10z"/>
<path d="M1045 307 c-6 -14 -14 -17 -32 -13 -19 5 -25 1 -33 -19 -12 -32 -22
-32 -14 0 5 21 3 25 -18 25 -20 0 -32 -17 -80 -114 -31 -63 -54 -117 -51 -120
4 -3 23 -6 44 -6 38 0 38 1 55 58 10 31 31 72 48 90 35 38 67 43 63 10 -2 -18
3 -22 28 -22 25 -1 30 3 28 21 -2 14 5 27 17 33 25 14 26 30 1 30 -10 0 -25
10 -34 23 -14 20 -16 21 -22 4z m-155 -191 c0 -2 -7 -9 -15 -16 -12 -10 -15
-10 -15 4 0 9 7 16 15 16 8 0 15 -2 15 -4z"/>
<path d="M1524 303 c-9 -15 -14 -16 -27 -5 -19 16 -39 7 -35 -16 2 -11 -6 -18
-27 -22 -21 -4 -30 -11 -31 -25 -2 -41 -4 -45 -24 -45 -14 0 -20 -7 -20 -21 0
-11 5 -17 10 -14 6 3 10 -3 10 -14 0 -11 -7 -24 -16 -29 -9 -5 -14 -15 -10
-21 4 -6 12 -9 17 -5 5 3 16 0 25 -6 11 -10 12 -16 3 -27 -17 -19 -2 -30 21
-15 28 17 53 15 46 -3 -3 -9 0 -15 10 -15 8 0 17 6 20 14 7 18 39 27 52 14 14
-14 32 -1 32 22 0 10 5 20 12 22 6 2 8 10 4 16 -5 9 -14 8 -36 -3 -55 -28 -90
-14 -90 37 0 25 4 28 50 34 31 4 59 15 75 30 28 26 32 44 10 44 -20 0 -19 17
1 28 12 7 13 11 5 16 -7 4 -19 2 -27 -5 -15 -12 -29 -6 -29 14 0 18 -19 18
-31 0z m-9 -83 c-3 -5 -14 -10 -23 -10 -15 0 -15 2 -2 10 20 13 33 13 25 0z"/>
<path d="M670 293 c-31 -12 -70 -45 -70 -59 0 -13 4 -12 30 1 32 17 76 20 85
6 3 -5 -12 -15 -32 -21 -86 -28 -138 -83 -126 -131 8 -28 64 -39 136 -28 86
14 103 28 117 93 20 98 -6 146 -79 145 -25 0 -53 -3 -61 -6z m104 -114 c-3 -5
-10 -7 -15 -3 -5 3 -7 10 -3 15 3 5 10 7 15 3 5 -3 7 -10 3 -15z m-60 -16
c-13 -54 -23 -70 -43 -76 -26 -7 -29 -1 -23 50 4 42 12 49 55 52 14 1 16 -4
11 -26z m51 -44 c-8 -12 -35 -12 -35 0 0 11 22 20 33 14 4 -2 5 -9 2 -14z"/>
<path d="M1876 198 c-4 -22 -4 -43 -2 -46 3 -2 41 1 85 8 67 10 80 15 85 33 3
12 2 25 -2 28 -4 4 -41 9 -83 12 l-77 5 -6 -40z"/>
</g>
</svg>
